<?xml version="1.0" standalone="no"?>
<!DOCTYPE svg PUBLIC "-//W3C//DTD SVG 20010904//EN"
 "http://www.w3.org/TR/2001/REC-SVG-20010904/DTD/svg10.dtd">
<svg version="1.0" xmlns="http://www.w3.org/2000/svg"
 width="512.000000pt" height="512.000000pt" viewBox="0 0 512.000000 512.000000"
 preserveAspectRatio="xMidYMid meet">
<metadata>
Created by potrace 1.14, written by Peter Selinger 2001-2017
</metadata>
<g transform="translate(0.000000,512.000000) scale(0.100000,-0.100000)"
fill="#000000" stroke="none">
<path d="M2809 4496 c-2 -2 -24 -6 -49 -10 -61 -8 -137 -29 -185 -52 -37 -18
-45 -19 -115 -6 -82 16 -466 22 -560 10 -30 -4 -75 -10 -100 -13 -139 -19
-375 -93 -528 -167 -104 -51 -277 -161 -342 -217 -19 -17 -43 -34 -53 -37 -19
-6 -174 -108 -215 -140 -175 -142 -309 -344 -326 -491 -2 -18 -8 -38 -13 -45
-13 -17 -16 -181 -5 -241 9 -46 8 -50 -33 -112 -41 -61 -81 -151 -92 -205 -36
-184 -20 -332 53 -486 59 -127 184 -272 299 -349 159 -106 284 -155 408 -160
l71 -3 11 -38 c33 -109 163 -274 278 -353 61 -41 164 -84 189 -78 10 3 44 -2
75 -10 169 -44 291 -47 503 -12 156 27 409 32 472 11 23 -8 72 -49 135 -111
184 -183 428 -310 703 -366 8 -1 83 -18 100 -22 8 -1 69 -6 135 -9 192 -11
334 28 455 124 80 63 211 203 254 271 47 74 60 100 91 186 l23 60 61 12 c91
19 168 60 237 128 140 140 198 325 199 635 0 253 -34 427 -122 619 -18 40 -42
86 -53 101 -11 16 -20 42 -20 59 0 42 -19 128 -40 181 -10 25 -35 99 -56 165
-41 132 -98 251 -161 335 -22 30 -48 69 -57 86 -32 65 -138 141 -236 170 -41
12 -52 21 -85 75 -46 75 -117 148 -187 193 -90 57 -311 165 -360 176 -26 5
-73 20 -105 32 -32 12 -60 23 -63 23 -3 1 -12 4 -20 8 -53 20 -164 49 -245 64
-37 6 -320 15 -326 9z"/>
</g>
</svg>
